<svg xmlns="http://www.w3.org/2000/svg" viewBox="0 0 64 64" role="img" aria-label="GTNH Thaumcraft Calculator icon">
  <defs>
    <radialGradient id="bg" cx="35%" cy="30%" r="75%">
      <stop offset="0%" stop-color="#2a2340" />
      <stop offset="100%" stop-color="#0d0a15" />
    </radialGradient>
    <radialGradient id="orb" cx="35%" cy="30%" r="65%">
      <stop offset="0%" stop-color="#f6ebff" />
      <stop offset="30%" stop-color="#bf9bff" />
      <stop offset="68%" stop-color="#7d57ff" />
      <stop offset="100%" stop-color="#4a2ca6" />
    </radialGradient>
  </defs>
  <rect width="64" height="64" rx="14" fill="url(#bg)" />
  <circle cx="32" cy="32" r="20" fill="url(#orb)" stroke="#d8c7ff" stroke-width="2" />
  <path d="M32 14v36M14 32h36M20 20l24 24M44 20L20 44" stroke="rgba(255,255,255,0.24)" stroke-width="2" />
  <circle cx="32" cy="32" r="6" fill="#fff6cc" stroke="#fff" stroke-width="1.5" />
  <path d="M49 15l1.8 4.2 4.2 1.8-4.2 1.8-1.8 4.2-1.8-4.2-4.2-1.8 4.2-1.8Z" fill="#ffd86b" />
  <path d="M16 45l1.2 2.8 2.8 1.2-2.8 1.2-1.2 2.8-1.2-2.8-2.8-1.2 2.8-1.2Z" fill="#8fe6ff" />
</svg>
